<?xml version="1.0" encoding="iso-8859-1"?>
<!-- Uploaded to: SVG Repo, www.svgrepo.com, Generator: SVG Repo Mixer Tools -->
<svg fill="#000000" height="800px" width="800px" version="1.1" id="Layer_1" xmlns="http://www.w3.org/2000/svg" xmlns:xlink="http://www.w3.org/1999/xlink" 
	 viewBox="0 0 511.999 511.999" xml:space="preserve">
<g>
	<g>
		<path d="M504.604,441.889v-0.594c0-9.2-6.302-16.933-14.809-19.17V107.274c8.506-2.237,14.809-9.97,14.809-19.171V61.108
			c0-10.942-8.902-19.845-19.844-19.845h-26.889V18.739c0-4.43-3.59-8.02-8.02-8.02c-4.43,0-8.02,3.59-8.02,8.02v22.525h-26.888
			c-10.941,0-19.844,8.902-19.844,19.845v26.996c0,9.2,6.302,16.933,14.809,19.17v16.604
			c-37.283,32.772-95.858,53.028-153.91,53.028s-116.625-20.255-153.91-53.03v-16.602c8.506-2.237,14.809-9.97,14.809-19.17V61.108
			c0-10.942-8.902-19.845-19.844-19.845H70.168V18.739c0-4.43-3.59-8.02-8.02-8.02c-4.43,0-8.02,3.59-8.02,8.02v22.525H27.241
			c-10.941,0-19.844,8.902-19.844,19.845v26.996c0,9.2,6.302,16.933,14.809,19.17v314.851c-8.506,2.237-14.809,9.97-14.809,19.17
			v0.593C3.05,443.786,0,448.122,0,453.161v35.822c0,6.78,5.517,12.297,12.297,12.297h99.701c6.78,0,12.297-5.517,12.297-12.297
			v-35.822c0-5.039-3.05-9.375-7.396-11.271v-0.594c0-9.2-6.302-16.933-14.809-19.17v-43.338h307.82v43.338
			c-8.506,2.237-14.809,9.97-14.809,19.17v0.594c-4.347,1.897-7.396,6.233-7.396,11.272v35.822c0,6.78,5.517,12.297,12.297,12.297
			h99.701c6.78,0,12.297-5.517,12.297-12.297v-35.822C512,448.122,508.951,443.786,504.604,441.889z M23.436,61.108
			c0-2.063,1.742-3.806,3.805-3.806h69.815c2.063,0,3.805,1.743,3.805,3.806v26.996c0,2.062-1.742,3.804-3.805,3.804H27.241
			c-2.063,0-3.805-1.742-3.805-3.804V61.108z M97.055,437.494c1.915,0,3.535,1.506,3.76,3.37H23.481
			c0.225-1.865,1.845-3.37,3.76-3.37H97.055z M38.245,421.454V107.947h47.806v313.507H38.245z M108.255,456.904v28.337H16.04
			v-28.337H108.255z M411.141,61.108c0-2.063,1.742-3.806,3.805-3.806h69.815c2.063,0,3.805,1.743,3.805,3.806v26.996
			c0,2.062-1.742,3.804-3.805,3.804h-69.815c-2.063,0-3.805-1.742-3.805-3.804V61.108z M484.761,437.494
			c1.915,0,3.534,1.506,3.76,3.37h-77.333c0.225-1.865,1.845-3.37,3.76-3.37H484.761z M425.95,421.454V107.947h47.807v313.507
			H425.95z M102.091,144.524c40.058,30.149,97.323,48.421,153.91,48.421c56.59,0,113.852-18.272,153.91-48.422v19.159
			c-17.235,11.624-36.636,21.262-57.791,28.617c-30.581,10.631-63.818,16.25-96.12,16.25c-32.3,0-65.539-5.619-96.122-16.25
			c-21.152-7.354-40.553-16.99-57.788-28.616V144.524z M409.91,182.78v149.939h-27.356V197.337
			C392.098,192.956,401.232,188.095,409.91,182.78z M366.515,204.102v128.616h-43.216V217.093
			c11.59-2.578,23.007-5.791,34.088-9.644C360.465,206.379,363.506,205.262,366.515,204.102z M307.259,220.243v112.476h-43.238
			V224.468C278.405,224.079,292.912,222.662,307.259,220.243z M247.98,224.468v108.25h-43.239V220.243
			C219.09,222.662,233.595,224.079,247.98,224.468z M188.702,217.093v115.626h-43.216V204.103c3.008,1.159,6.049,2.277,9.125,3.346
			C165.694,211.3,177.112,214.514,188.702,217.093z M102.091,182.781c8.678,5.317,17.811,10.178,27.356,14.557v135.379h-27.356
			V182.781z M102.091,362.748v-13.991h307.82v13.991H102.091z M495.96,485.24h-92.216v-28.337h92.216V485.24z"/>
	</g>
</g>
</svg>